<svg width="19" height="21" viewBox="0 0 19 21" fill="none" xmlns="http://www.w3.org/2000/svg">
<path d="M10.575 20.9428C9.06831 20.9428 7.67318 20.6857 6.38967 20.1715C5.10615 19.6381 3.98075 18.9048 3.01347 17.9714C2.06479 17.0191 1.32072 15.9047 0.781269 14.6286C0.260423 13.3524 0 11.9714 0 10.4857C0 8.98096 0.260423 7.60001 0.781269 6.34286C1.32072 5.06667 2.06479 3.96191 3.01347 3.02857C3.98075 2.09524 5.09685 1.36191 6.36177 0.828573C7.64528 0.29524 9.0311 0.028574 10.5192 0.028574C12.0817 0.028574 13.4862 0.285717 14.7325 0.800002C15.9788 1.29524 17.0764 1.99048 18.025 2.88572L14.6767 6.31429C14.2116 5.78096 13.635 5.3619 12.9468 5.05714C12.2585 4.75238 11.4494 4.6 10.5192 4.6C9.7194 4.6 8.98459 4.73333 8.31493 5.00001C7.66388 5.26667 7.09653 5.66667 6.61289 6.2C6.12924 6.71428 5.74791 7.33333 5.46888 8.05715C5.20846 8.78095 5.07825 9.59051 5.07825 10.4857C5.07825 11.3809 5.20846 12.1905 5.46888 12.9143C5.74791 13.6381 6.12924 14.2666 6.61289 14.8C7.09653 15.3142 7.66388 15.7143 8.31493 16C8.98459 16.2667 9.7194 16.4 10.5192 16.4C11.4494 16.4 12.2678 16.2572 12.9747 15.9715C13.6815 15.6667 14.2861 15.2381 14.7883 14.6857L18.1367 18.1143C17.1693 19.0095 16.0719 19.7048 14.8441 20.2C13.635 20.6952 12.212 20.9428 10.575 20.9428Z" fill="black"/>
</svg>
