<svg width="22" height="21" viewBox="0 0 22 21" fill="none" xmlns="http://www.w3.org/2000/svg">
<path d="M10.8498 21C9.32449 21 7.92006 20.7333 6.63651 20.2C5.35306 19.6667 4.22758 18.9238 3.26036 17.9714C2.31165 17.0191 1.5676 15.9047 1.02811 14.6286C0.488713 13.3334 0.218964 11.9429 0.218964 10.4571C0.218964 8.97143 0.479413 7.6 1.00021 6.34286C1.53971 5.06667 2.28376 3.95238 3.23248 3C4.18109 2.04761 5.29727 1.31428 6.58072 0.800002C7.86427 0.266667 9.26869 0 10.794 0C12.3194 0 13.7238 0.266667 15.0075 0.800002C16.2904 1.31428 17.4072 2.04761 18.3558 3C19.3044 3.95238 20.0389 5.06667 20.5602 6.34286C21.0993 7.61905 21.3688 9 21.3688 10.4857C21.3688 11.9714 21.0993 13.3524 20.5602 14.6286C20.0389 15.9047 19.3044 17.0286 18.3558 18C17.4072 18.9524 16.2904 19.6952 15.0075 20.2285C13.7424 20.7428 12.3566 21 10.8498 21ZM10.794 16.4286C11.9101 16.4286 12.8774 16.181 13.6959 15.6858C14.5144 15.1904 15.1465 14.4952 15.5935 13.6C16.0397 12.7048 16.2632 11.6571 16.2632 10.4571C16.2632 9.58096 16.1327 8.78095 15.8725 8.05715C15.6302 7.33333 15.2676 6.71428 14.7839 6.2C14.3002 5.66667 13.7237 5.25714 13.0542 4.97143C12.3845 4.68571 11.6311 4.54286 10.794 4.54286C9.67791 4.54286 8.71061 4.79048 7.89216 5.28572C7.07372 5.7619 6.44124 6.44762 5.99483 7.34286C5.54832 8.2381 5.32516 9.2762 5.32516 10.4571C5.32516 11.3714 5.44604 12.2 5.68789 12.9429C5.94825 13.6667 6.32027 14.2953 6.80398 14.8286C7.28758 15.3429 7.86427 15.7428 8.53394 16.0285C9.20361 16.2952 9.95696 16.4286 10.794 16.4286Z" fill="black"/>
</svg>
