<svg width="18" height="21" viewBox="0 0 18 21" fill="none" xmlns="http://www.w3.org/2000/svg">
<path d="M4.82885 12.4286V8.77143H8.59609C9.41415 8.77143 10.0378 8.57143 10.4651 8.17143C10.9122 7.75238 11.1348 7.19048 11.1348 6.48572C11.1348 5.8 10.9122 5.24762 10.4651 4.82857C10.0378 4.39048 9.41415 4.17143 8.59609 4.17143H4.82885V0.371429H9.29393C10.6333 0.371429 11.8045 0.628573 12.8095 1.14286C13.8323 1.65715 14.6325 2.36191 15.2092 3.25715C15.7859 4.15238 16.0742 5.2 16.0742 6.4C16.0742 7.6 15.7765 8.65714 15.181 9.57142C14.6043 10.4667 13.7947 11.1714 12.7531 11.6857C11.7115 12.181 10.4933 12.4286 9.09857 12.4286H4.82885ZM0.867188 20.6286V0.371429H5.86199V20.6286H0.867188ZM11.5819 20.6286L5.83382 11.9429L10.3261 10.8286L17.3572 20.6286H11.5819Z" fill="black"/>
</svg>
